<?xml version="1.0" encoding="utf-8"?>
<svg version="1.1" id="Layer_1" xmlns="http://www.w3.org/2000/svg" xmlns:xlink="http://www.w3.org/1999/xlink" x="0px" y="0px" viewBox="0 0 500 478" style="enable-background:new 0 0 500 478;" xml:space="preserve">
	<style type="text/css">.st0{fill:#333333;} .st1{fill:#27AAE1;}</style>
	<g>
		<g>
			<path class="st0" d="M193.7,172.7v83.2l-13.6-4.9l-30.4-11v0L119.8,229l-23-8.3L78,213.8l-24.7-9L18,192
				c-4.1-14.3-7.6-28.9-10.3-43.8c-2.8-14.9-4.8-30-6.1-45.4c-0.8-9.3-1.3-18.6-1.6-28c10.3-6.6,20.9-12.8,31.6-18.6
				c15-8,30.5-15.3,46.4-21.7v0.6c0,13,0.5,25.8,1.6,38.5c1,12.3,2.5,24.6,4.4,36.6c1.3,8.1,2.8,16.1,4.5,24.1l8.2,3l16.3,5.9
				l63.5,23.1h0L193.7,172.7z"/>
		</g>
		<g>
			<path class="st1" d="M401.6,24.8v1.4c0,25.5-2,50.5-5.9,74.8c-14.5-4.7-29.4-8.6-44.5-11.8h-0.1c-13.7-2.9-27.6-5.2-41.7-6.9
				c-6.2-0.8-12.5-1.4-18.8-1.9V453c-12.4,8.3-25.3,16-38.5,23c-0.7,0.4-1.4,0.8-2.1,1.2c-0.7-0.4-1.4-0.8-2.2-1.2
				c-12.1-6.5-23.9-13.5-35.4-21V80.7c-6.3,0.5-12.5,1.2-18.8,2c-19.9,2.5-39.5,6.3-58.5,11.2c-10.3,2.7-20.5,5.7-30.6,9.1
				c-1.2-7-2.2-14.1-3-21.3c-2.1-17.9-3.2-36.2-3.3-54.7c14.7-5.1,29.7-9.6,45.1-13.2h0c16.4-3.9,33.2-7,50.3-9.2
				c6.2-0.8,12.5-1.5,18.8-2c13.4-1.2,27-1.8,40.6-1.8c12.6,0,25.1,0.5,37.5,1.5c6.3,0.5,12.6,1.1,18.8,1.9
				C341.2,8,372,14.9,401.6,24.8z"/>
		</g>
		<g>
			<path class="st0" d="M193.7,343.6v98.5c-1.1-0.8-2.2-1.6-3.3-2.4c-5.3-3.8-10.4-7.8-15.5-11.9c-11.7-9.4-23-19.4-33.7-29.9
				c-10.1-9.8-19.7-20.2-28.9-30.9c-5.3-6.3-10.5-12.6-15.5-19.2c-6.6-8.5-12.8-17.2-18.8-26.2c-13.3-20-25.1-41.1-35.3-63.1
				L78,271.3l18.8,6.8l64.1,23.3C171,316.2,182,330.2,193.7,343.6z"/>
		</g>
		<g>
			<path class="st0" d="M500,71c-0.4,23.8-2.6,47.2-6.5,70c-0.2,1.3-0.4,2.6-0.7,3.8c-4.3,24.3-10.5,48-18.4,70.9
				c-0.2,0.4-0.3,0.9-0.5,1.4l-52-18.9l-18.8-6.8l-7-2.5c0.7-1.9,1.3-3.8,1.9-5.7c1.8-5.3,3.5-10.8,5-16.2
				c5.2-17.7,9.3-35.8,12.4-54.2c0.2-1.5,0.5-3,0.7-4.5c3.7-23.8,5.7-48.1,5.7-72.9v-3.1C449.3,42.7,475.4,55.7,500,71z"/>
		</g>
		<g>
			<path class="st0" d="M310.5,439c4.9-3.6,9.8-7.4,14.5-11.2c11.7-9.5,23-19.4,33.8-30c6-5.9,11.8-11.9,17.6-18.1
				c9.4-10.2,18.4-20.9,26.9-32c3.2-4.1,6.3-8.2,9.3-12.4c3.3-4.5,6.4-9.1,9.5-13.8c11.6-17.4,22-35.6,31.2-54.6l-31.2-11.3l-13-4.8
				l-5.7-2.1l-27.6-10.1l-21-7.6l-45.1-16.4v83.2l4.3,1.6l21.3,7.8c-8.1,11.3-16.6,22.2-25.6,32.8v99.8L310.5,439z"/>
		</g>
	</g>
</svg>
